# xmcd
#
# Track frame offsets:
#	150
#	12916
#	27897
#	44872
#	63045
#	78540
#	100724
#	118998
#	132720
#	145485
#	169712
#	188983
#	203845
#	216348
#	235703
#
# Disc length: 3358 seconds
#
# Revision: 2
# Processed by: cddbd v1.5.2PL0 Copyright (c) Steve Scherf et al.
# Submitted via: audiograbber 1.83.01
#
DISCID=de0d1c0f
DTITLE=Various Artist - Classic Country - New Country [Disc 1]
DYEAR=2002
DGENRE=Country
TTITLE0=LeAnn Rimes - Blue
TTITLE1=Brooks and Dunn - Boot Scootin' Boogie
TTITLE2=Dixie Chicks - Wide Open Spaces
TTITLE3=James Blundell and James Reyne - Way Out West
TTITLE4=Billy Ray Cyrus - Achy Breaky Heart
TTITLE5=Shanley Del - Shame On The Moon
TTITLE6=Mary-Chapin Carpenter - He Thinks He'll Keep Her
TTITLE7=Felicity - Sugar Town
TTITLE8=Joe Diffie - 3rd Rock From The Sun
TTITLE9=The Judds - Love Can Build A Bridge
TTITLE10=Mindy McCready - Oh Romeo
TTITLE11=Adam Brand - Last Man Standing
TTITLE12=Pam Tillis - When You Walk In The Room
TTITLE13=Restless Heart - I'll Still Be Loving You
TTITLE14=Patty Loveless - Blame It On Your Heart
EXTD=
EXTT0=
EXTT1=
EXTT2=
EXTT3=
EXTT4=
EXTT5=
EXTT6=
EXTT7=
EXTT8=
EXTT9=
EXTT10=
EXTT11=
EXTT12=
EXTT13=
EXTT14=
PLAYORDER=
